<svg id="visual" viewBox="0 0 900 600" width="900" height="600" xmlns="http://www.w3.org/2000/svg" xmlns:xlink="http://www.w3.org/1999/xlink" version="1.1"><rect x="0" y="0" width="900" height="600" fill="#001220"></rect><defs><linearGradient id="grad1_0" x1="33.3%" y1="0%" x2="100%" y2="100%"><stop offset="20%" stop-color="#001220" stop-opacity="1"></stop><stop offset="80%" stop-color="#001220" stop-opacity="1"></stop></linearGradient></defs><defs><linearGradient id="grad2_0" x1="0%" y1="0%" x2="66.7%" y2="100%"><stop offset="20%" stop-color="#001220" stop-opacity="1"></stop><stop offset="80%" stop-color="#001220" stop-opacity="1"></stop></linearGradient></defs><g transform="translate(900, 0)"><path d="M0 378.6C-35.7 342.3 -71.3 306 -121.7 293.8C-172.1 281.6 -237.2 293.6 -267.7 267.7C-298.2 241.8 -294 178 -306.7 127.1C-319.4 76.1 -349 38.1 -378.6 0L0 0Z" fill="#FBAE3C"></path></g><g transform="translate(0, 600)"><path d="M0 -378.6C33.9 -336.6 67.8 -294.7 117.1 -282.7C166.4 -270.7 231 -288.7 267.7 -267.7C304.4 -246.7 313.2 -186.6 327.1 -135.5C340.9 -84.3 359.7 -42.2 378.6 0L0 0Z" fill="#FBAE3C"></path></g></svg>