<svg width="559" height="452" viewBox="0 0 559 452" fill="none" xmlns="http://www.w3.org/2000/svg">
<path d="M559 22.6C559 10.1184 546.486 0 531.05 0H238.973C223.536 0 211.022 10.1184 211.022 22.6V203.4C211.022 215.882 198.509 226 183.073 226H27.95C12.5137 226 0 236.118 0 248.6V429.4C0 441.882 12.5137 452 27.95 452H297.667C313.104 452 325.617 441.882 325.617 429.4V248.6C325.617 236.118 338.131 226 353.568 226H531.05C546.486 226 559 215.882 559 203.4V22.6Z" fill="black"/>
<rect width="188" height="200" rx="20" transform="matrix(-1 0 0 1 188 0)" fill="black"/>
<rect width="216" height="200" rx="20" transform="matrix(-1 0 0 1 559 252)" fill="black"/>
</svg>
