<svg id="visual" viewBox="0 0 900 600" width="900" height="600" xmlns="http://www.w3.org/2000/svg" xmlns:xlink="http://www.w3.org/1999/xlink" version="1.1"><path d="M0 234L21.5 230.2C43 226.3 86 218.7 128.8 229.3C171.7 240 214.3 269 257.2 298.3C300 327.7 343 357.3 385.8 349.7C428.7 342 471.3 297 514.2 266.3C557 235.7 600 219.3 642.8 210.8C685.7 202.3 728.3 201.7 771.2 212C814 222.3 857 243.7 878.5 254.3L900 265L900 601L878.5 601C857 601 814 601 771.2 601C728.3 601 685.7 601 642.8 601C600 601 557 601 514.2 601C471.3 601 428.7 601 385.8 601C343 601 300 601 257.2 601C214.3 601 171.7 601 128.8 601C86 601 43 601 21.5 601L0 601Z" fill="#0066FF" stroke-linecap="round" stroke-linejoin="miter"></path></svg>